<svg id="Layer_1" data-name="Layer 1" xmlns="http://www.w3.org/2000/svg" xmlns:xlink="http://www.w3.org/1999/xlink" viewBox="0 0 1297.74 735.76"><defs><style>.cls-1,.cls-2,.cls-3,.cls-6,.cls-7{fill:none;}.cls-1{clip-rule:evenodd;}.cls-2,.cls-4,.cls-45,.cls-47,.cls-48,.cls-53{fill-rule:evenodd;}.cls-4{fill:#fff;}.cls-5{clip-path:url(#clip-path);}.cls-6{stroke:#f2f2f2;}.cls-6,.cls-7{stroke-linejoin:round;stroke-width:0.75px;}.cls-7{stroke:#d9d9d9;}.cls-8{clip-path:url(#clip-path-3);}.cls-53,.cls-9{fill:#4472c4;}.cls-10,.cls-48{fill:#ed7d31;}.cls-11,.cls-47{fill:#a5a5a5;}.cls-12,.cls-45{fill:#ffc000;}.cls-13{clip-path:url(#clip-path-9);}.cls-14,.cls-15,.cls-35{font-size:12.42px;font-family:Calibri;}.cls-14{fill:#404040;}.cls-15,.cls-35{fill:#595959;}.cls-16,.cls-35{letter-spacing:0em;}.cls-17{letter-spacing:0em;}.cls-18{letter-spacing:0em;}.cls-19{letter-spacing:0em;}.cls-20{letter-spacing:0.01em;}.cls-21{letter-spacing:0em;}.cls-22{letter-spacing:0em;}.cls-23{letter-spacing:0em;}.cls-24{letter-spacing:0em;}.cls-25{letter-spacing:0em;}.cls-26{letter-spacing:0.01em;}.cls-27{letter-spacing:-0.01em;}.cls-28{letter-spacing:0.01em;}.cls-29{letter-spacing:0.01em;}.cls-30{letter-spacing:0.01em;}.cls-31{letter-spacing:0em;}.cls-32{letter-spacing:0em;}.cls-33{letter-spacing:0.01em;}.cls-34{letter-spacing:0.01em;}.cls-36{letter-spacing:-0.01em;}.cls-37{letter-spacing:0.01em;}.cls-38{letter-spacing:-0.01em;}.cls-39{letter-spacing:0.01em;}.cls-40{letter-spacing:-0.01em;}.cls-41{letter-spacing:0.01em;}.cls-42{letter-spacing:-0.01em;}.cls-43{letter-spacing:0.01em;}.cls-44{letter-spacing:0.01em;}.cls-46{letter-spacing:0em;}.cls-49{letter-spacing:0em;}.cls-50{letter-spacing:-0.01em;}.cls-51{letter-spacing:0.01em;}.cls-52{letter-spacing:-0.01em;}.cls-54{letter-spacing:-0.01em;}.cls-55{letter-spacing:0.01em;}.cls-56{letter-spacing:0.01em;}.cls-57{letter-spacing:0em;}.cls-58{letter-spacing:0em;}.cls-59{clip-path:url(#clip-path-114);}</style><clipPath id="clip-path" transform="translate(-29.13 -14.12)"><polygon class="cls-1" points="29.34 749.5 1326.49 749.5 1326.49 14.33 29.34 14.33 29.34 749.5 29.34 749.5"/></clipPath><clipPath id="clip-path-3" transform="translate(-29.13 -14.12)"><polygon class="cls-1" points="247.83 718.55 1305.76 718.55 1305.76 61.01 247.83 61.01 247.83 718.55 247.83 718.55"/></clipPath><clipPath id="clip-path-9" transform="translate(-29.13 -14.12)"><rect class="cls-3" x="29.34" y="14.33" width="1297.16" height="735.17"/></clipPath><clipPath id="clip-path-114" transform="translate(-29.13 -14.12)"><polygon class="cls-1" points="29 750 1327 750 1327 14 29 14 29 750 29 750"/></clipPath></defs><polygon class="cls-4" points="0.38 0.38 1297.36 0.38 1297.36 735.38 0.38 735.38 0.38 0.38 0.38 0.38"/><g class="cls-5"><path class="cls-6" d="M274.3,61.18V717.55M300.77,61.18V717.55m26.3-656.37V717.55M353.54,61.18V717.55M406.31,61.18V717.55M432.78,61.18V717.55M459.25,61.18V717.55M485.72,61.18V717.55M538.49,61.18V717.55M565,61.18V717.55m26.3-656.37V717.55M617.73,61.18V717.55M670.67,61.18V717.55M697,61.18V717.55M723.44,61.18V717.55M749.91,61.18V717.55M802.67,61.18V717.55M829.14,61.18V717.55M855.61,61.18V717.55m26.3-656.37V717.55M934.85,61.18V717.55M961.32,61.18V717.55m26.3-656.37V717.55m26.47-656.37V717.55m52.77-656.37V717.55m26.47-656.37V717.55M1119.8,61.18V717.55m26.47-656.37V717.55M1199,61.18V717.55m26.47-656.37V717.55m26.3-656.37V717.55m26.47-656.37V717.55" transform="translate(-29.13 -14.12)"/></g><g class="cls-5"><path class="cls-7" d="M380,61.18V717.55M512,61.18V717.55M644.2,61.18V717.55m132-656.37V717.55M908.38,61.18V717.55M1040.56,61.18V717.55m132-656.37V717.55M1304.75,61.18V717.55" transform="translate(-29.13 -14.12)"/></g><g class="cls-8"><path class="cls-9" d="M936,702.82H247.83V686.76H936v16.06Zm-369.22-93.7h-319v-16h319v16Zm489.09-93.69H247.83V499.2H1055.9v16.23ZM654.48,421.57H247.83V405.51H654.48v16.06Zm586-93.7H247.83V311.64h992.68v16.23ZM951.37,234H247.83V218H951.37V234Zm163.88-93.7H247.83V124.09h867.42v16.22Z" transform="translate(-29.13 -14.12)"/></g><g class="cls-8"><path class="cls-10" d="M989.48,686.76H247.83v-16H989.48v16ZM476.62,593.07H247.83V576.84H476.62v16.23ZM819,499.2H247.83V483.15H819V499.2ZM557.71,405.51H247.83V389.28H557.71v16.23Zm94.07-93.87H247.83V295.59H651.78v16.05ZM707.93,218H247.83V201.89h460.1V218Zm-30.18-93.86H247.83V108H677.75v16.06Z" transform="translate(-29.13 -14.12)"/></g><g class="cls-8"><path class="cls-11" d="M683.31,670.71H247.83V654.48H683.31v16.23ZM364.16,576.84H247.83V560.79H364.16v16.05Zm149-93.69H247.83V467.09H513.2v16.06Zm-53.11-93.87H247.83v-16H460.09v16Zm57-93.69H247.83V279.53H517.08v16.06Zm-241.77-93.7H247.83V185.67h27.48v16.22ZM276.83,108h-29V92h29V108Z" transform="translate(-29.13 -14.12)"/></g><g class="cls-8"><path class="cls-12" d="M370.91,654.48H247.83V638.42H370.91v16.06ZM269.58,560.79H247.83V544.73h21.75v16.06Zm69-93.7H247.83V450.87h90.71v16.22Zm-42.66-93.86h-48V357.17h48v16.06Zm25.46-93.7H247.83V263.31h73.51v16.22Zm58.17-93.86H247.83V169.61H379.51v16.06ZM399.4,92H247.83V75.75H399.4V92Z" transform="translate(-29.13 -14.12)"/></g><g class="cls-5"><line class="cls-7" x1="218.7" y1="703.43" x2="218.7" y2="47.06"/></g><g class="cls-5"><g class="cls-13"><text class="cls-14" transform="translate(915.38 684.87) scale(1.02 1)">10.4 </text></g></g><g class="cls-5"><g class="cls-13"><text class="cls-14" transform="translate(546.13 591.11) scale(1.02 1)">4.8 </text></g></g><g class="cls-5"><g class="cls-13"><text class="cls-14" transform="translate(1035.26 497.34) scale(1.02 1)">12.2 </text></g></g><g class="cls-5"><g class="cls-13"><text class="cls-14" transform="translate(633.72 403.57) scale(1.02 1)">6.2 </text></g></g><g class="cls-5"><g class="cls-13"><text class="cls-14" transform="translate(1219.79 309.8) scale(1.02 1)">15.0 </text></g></g><g class="cls-5"><g class="cls-13"><text class="cls-14" transform="translate(930.69 216.04) scale(1.02 1)">10.7 </text></g></g><g class="cls-5"><g class="cls-13"><text class="cls-14" transform="translate(1094.47 122.28) scale(1.02 1)">13.1 </text></g></g><g class="cls-5"><g class="cls-13"><text class="cls-14" transform="translate(968.75 668.76) scale(1.02 1)">11.2 </text></g></g><g class="cls-5"><g class="cls-13"><text class="cls-14" transform="translate(455.84 574.99) scale(1.02 1)">3.5 </text></g></g><g class="cls-5"><g class="cls-13"><text class="cls-14" transform="translate(798.27 481.23) scale(1.02 1)">8.6 </text></g></g><g class="cls-5"><g class="cls-13"><text class="cls-14" transform="translate(536.96 387.46) scale(1.02 1)">4.7 </text></g></g><g class="cls-5"><g class="cls-13"><text class="cls-14" transform="translate(631.03 293.69) scale(1.02 1)">6.1 </text></g></g><g class="cls-5"><g class="cls-13"><text class="cls-14" transform="translate(687.16 199.93) scale(1.02 1)">7.0 </text></g></g><g class="cls-5"><g class="cls-13"><text class="cls-14" transform="translate(657.04 106.16) scale(1.02 1)">6.5 </text></g></g><g class="cls-5"><g class="cls-13"><text class="cls-14" transform="translate(662.66 652.65) scale(1.02 1)">6.6 </text></g></g><g class="cls-5"><g class="cls-13"><text class="cls-14" transform="translate(343.55 558.88) scale(1.02 1)">1.8 </text></g></g><g class="cls-5"><g class="cls-13"><text class="cls-14" transform="translate(492.5 465.12) scale(1.02 1)">4.0 </text></g></g><g class="cls-5"><g class="cls-13"><text class="cls-14" transform="translate(439.46 371.36) scale(1.02 1)">3.2 </text></g></g><g class="cls-5"><g class="cls-13"><text class="cls-14" transform="translate(496.42 277.58) scale(1.02 1)">4.1 </text></g></g><g class="cls-5"><g class="cls-13"><text class="cls-14" transform="translate(254.65 183.82) scale(1.02 1)">0.4 </text></g></g><g class="cls-5"><g class="cls-13"><text class="cls-14" transform="translate(256.13 90.05) scale(1.02 1)">0.4 </text></g></g><g class="cls-5"><g class="cls-13"><text class="cls-14" transform="translate(350.16 636.56) scale(1.02 1)">1.9 </text></g></g><g class="cls-5"><g class="cls-13"><text class="cls-14" transform="translate(248.97 542.77) scale(1.02 1)">0.3 </text></g></g><g class="cls-5"><g class="cls-13"><text class="cls-14" transform="translate(317.79 449.01) scale(1.02 1)">1.4 </text></g></g><g class="cls-5"><g class="cls-13"><text class="cls-14" transform="translate(275.25 355.24) scale(1.02 1)">0.7 </text></g></g><g class="cls-5"><g class="cls-13"><text class="cls-14" transform="translate(300.66 261.47) scale(1.02 1)">1.1 </text></g></g><g class="cls-5"><g class="cls-13"><text class="cls-14" transform="translate(358.84 167.7) scale(1.02 1)">2.0 </text></g></g><g class="cls-5"><g class="cls-13"><text class="cls-14" transform="translate(378.74 73.94) scale(1.02 1)">2.3 </text></g></g><g class="cls-5"><g class="cls-13"><text class="cls-15" transform="translate(215.52 723.06) scale(1.02 1)">0</text></g></g><g class="cls-5"><g class="cls-13"><text class="cls-15" transform="translate(347.62 723.06) scale(1.02 1)">2</text></g></g><g class="cls-5"><g class="cls-13"><text class="cls-15" transform="translate(479.73 723.06) scale(1.02 1)">4</text></g></g><g class="cls-5"><g class="cls-13"><text class="cls-15" transform="translate(611.84 723.06) scale(1.02 1)">6</text></g></g><g class="cls-5"><g class="cls-13"><text class="cls-15" transform="translate(743.95 723.06) scale(1.02 1)">8</text></g></g><g class="cls-5"><g class="cls-13"><text class="cls-15" transform="translate(872.85 723.06) scale(1.02 1)">10</text></g></g><g class="cls-5"><g class="cls-13"><text class="cls-15" transform="translate(1004.96 723.06) scale(1.02 1)">12</text></g></g><g class="cls-5"><g class="cls-13"><text class="cls-15" transform="translate(1137.07 723.06) scale(1.02 1)">14</text></g></g><g class="cls-5"><g class="cls-13"><text class="cls-15" transform="translate(1269.17 723.06) scale(1.02 1)">16</text></g></g><g class="cls-5"><g class="cls-13"><text class="cls-15" transform="translate(119.97 660.03) scale(1.02 1)"><tspan class="cls-16">W</tspan><tspan class="cls-17" x="11.08" y="0">r</tspan><tspan class="cls-18" x="15.4" y="0">i</tspan><tspan class="cls-19" x="18.22" y="0">t</tspan><tspan class="cls-20" x="22.37" y="0">e</tspan><tspan class="cls-19" x="28.66" y="0">r</tspan><tspan class="cls-21" x="32.98" y="0">_</tspan><tspan class="cls-22" x="39.11" y="0">l</tspan><tspan class="cls-23" x="41.93" y="0">o</tspan><tspan x="48.54" y="0">a</tspan><tspan class="cls-24" x="54.49" y="0">d</tspan><tspan class="cls-25" x="60.95" y="0">_</tspan><tspan class="cls-26" x="67.08" y="0">d</tspan><tspan class="cls-27" x="73.69" y="0">o</tspan><tspan x="80.16" y="0">c</tspan></text></g></g><g class="cls-5"><g class="cls-13"><text class="cls-15" transform="translate(108.34 566.26) scale(1.02 1)"><tspan class="cls-16">W</tspan><tspan class="cls-17" x="11.08" y="0">r</tspan><tspan class="cls-18" x="15.4" y="0">i</tspan><tspan class="cls-19" x="18.22" y="0">t</tspan><tspan class="cls-20" x="22.37" y="0">e</tspan><tspan class="cls-19" x="28.66" y="0">r</tspan><tspan class="cls-21" x="32.98" y="0">_</tspan><tspan class="cls-16" x="39.11" y="0">c</tspan><tspan class="cls-27" x="44.4" y="0">o</tspan><tspan class="cls-26" x="50.86" y="0">p</tspan><tspan x="57.47" y="0">y</tspan><tspan class="cls-25" x="63.09" y="0">_</tspan><tspan class="cls-24" x="69.22" y="0">p</tspan><tspan x="75.68" y="0">a</tspan><tspan class="cls-28" x="81.63" y="0">s</tspan><tspan class="cls-17" x="86.58" y="0">t</tspan><tspan x="90.73" y="0">e</tspan></text></g></g><g class="cls-5"><g class="cls-13"><text class="cls-15" transform="translate(100.16 472.49) scale(1.02 1)"><tspan class="cls-16">W</tspan><tspan class="cls-17" x="11.08" y="0">r</tspan><tspan class="cls-18" x="15.4" y="0">i</tspan><tspan class="cls-19" x="18.22" y="0">t</tspan><tspan class="cls-20" x="22.37" y="0">e</tspan><tspan class="cls-19" x="28.66" y="0">r</tspan><tspan class="cls-21" x="32.98" y="0">_</tspan><tspan class="cls-22" x="39.11" y="0">i</tspan><tspan class="cls-29" x="41.93" y="0">n</tspan><tspan class="cls-25" x="48.54" y="0">se</tspan><tspan class="cls-30" x="59.48" y="0">r</tspan><tspan class="cls-17" x="63.94" y="0">t</tspan><tspan class="cls-25" x="68.09" y="0">_</tspan><tspan class="cls-18" x="74.22" y="0">i</tspan><tspan class="cls-31" x="77.05" y="0">m</tspan><tspan class="cls-32" x="86.98" y="0">a</tspan><tspan class="cls-21" x="92.92" y="0">g</tspan><tspan x="98.72" y="0">e</tspan></text></g></g><g class="cls-5"><g class="cls-13"><text class="cls-15" transform="translate(119.24 378.73) scale(1.02 1)"><tspan class="cls-16">W</tspan><tspan class="cls-17" x="11.08" y="0">r</tspan><tspan class="cls-18" x="15.4" y="0">i</tspan><tspan class="cls-19" x="18.22" y="0">t</tspan><tspan class="cls-20" x="22.37" y="0">e</tspan><tspan class="cls-19" x="28.66" y="0">r</tspan><tspan class="cls-21" x="32.98" y="0">_s</tspan><tspan x="43.92" y="0">a</tspan><tspan class="cls-31" x="49.86" y="0">v</tspan><tspan class="cls-33" x="55.48" y="0">e</tspan><tspan class="cls-25" x="61.77" y="0">_</tspan><tspan class="cls-24" x="67.91" y="0">d</tspan><tspan class="cls-23" x="74.37" y="0">o</tspan><tspan class="cls-32" x="80.98" y="0">c</tspan></text></g></g><g class="cls-5"><g class="cls-13"><text class="cls-15" transform="translate(110.02 277.38) scale(1.02 1)"><tspan class="cls-16">W</tspan><tspan class="cls-17" x="11.08" y="0">r</tspan><tspan class="cls-18" x="15.4" y="0">i</tspan><tspan class="cls-19" x="18.22" y="0">t</tspan><tspan class="cls-20" x="22.37" y="0">e</tspan><tspan class="cls-19" x="28.66" y="0">r</tspan><tspan class="cls-21" x="32.98" y="0">_e</tspan><tspan class="cls-34" x="45.24" y="0">x</tspan><tspan class="cls-24" x="50.69" y="0">p</tspan><tspan class="cls-23" x="57.15" y="0">o</tspan><tspan class="cls-17" x="63.76" y="0">rt</tspan><tspan class="cls-21" x="72.22" y="0">_</tspan><tspan class="cls-26" x="78.36" y="0">p</tspan><tspan class="cls-24" x="84.97" y="0">d</tspan><tspan x="91.43" y="0">f</tspan></text></g></g><g class="cls-5"><g class="cls-13"><text class="cls-35" transform="translate(142.5 292.54) scale(1.02 1)">(<tspan class="cls-36" x="3.8" y="0">x</tspan><tspan class="cls-32" x="9.1" y="0" xml:space="preserve"> 0.3)</tspan></text></g></g><g class="cls-5"><g class="cls-13"><text class="cls-15" transform="translate(75.1 183.61) scale(1.02 1)">Ca<tspan class="cls-18" x="12.57" y="0">l</tspan><tspan class="cls-16" x="15.39" y="0">c</tspan><tspan class="cls-25" x="20.68" y="0">_</tspan><tspan class="cls-18" x="26.81" y="0">l</tspan><tspan class="cls-23" x="29.64" y="0">o</tspan><tspan class="cls-32" x="36.25" y="0">a</tspan><tspan class="cls-24" x="42.19" y="0">d</tspan><tspan class="cls-37" x="48.65" y="0">_</tspan><tspan class="cls-38" x="54.94" y="0">B</tspan><tspan class="cls-26" x="61.57" y="0">u</tspan><tspan class="cls-18" x="68.18" y="0">il</tspan><tspan class="cls-26" x="73.83" y="0">d</tspan><tspan class="cls-18" x="80.44" y="0">i</tspan><tspan class="cls-24" x="83.26" y="0">n</tspan><tspan class="cls-33" x="89.72" y="0">g</tspan><tspan class="cls-17" x="95.68" y="0">D</tspan><tspan class="cls-25" x="103.3" y="0">es</tspan><tspan class="cls-39" x="114.24" y="0">i</tspan><tspan class="cls-25" x="117.21" y="0">g</tspan><tspan x="123.01" y="0">n</tspan></text></g></g><g class="cls-5"><g class="cls-13"><text class="cls-35" transform="translate(125.05 198.78) scale(1.02 1)">(<tspan class="cls-36" x="3.8" y="0">x</tspan><tspan class="cls-32" x="9.1" y="0" xml:space="preserve"> 0.3)</tspan></text></g></g><g class="cls-5"><g class="cls-13"><text class="cls-15" transform="translate(9.46 89.84) scale(1.02 1)">Ca<tspan class="cls-18" x="12.57" y="0">l</tspan><tspan class="cls-16" x="15.39" y="0">c</tspan><tspan class="cls-25" x="20.68" y="0">_</tspan><tspan class="cls-18" x="26.81" y="0">l</tspan><tspan class="cls-23" x="29.64" y="0">o</tspan><tspan class="cls-32" x="36.25" y="0">a</tspan><tspan class="cls-24" x="42.19" y="0">d</tspan><tspan class="cls-37" x="48.65" y="0">_</tspan><tspan class="cls-40" x="54.94" y="0">S</tspan><tspan class="cls-17" x="60.57" y="0">t</tspan><tspan class="cls-41" x="64.71" y="0">o</tspan><tspan class="cls-42" x="71.32" y="0">c</tspan><tspan class="cls-43" x="76.46" y="0">k</tspan><tspan class="cls-21" x="82.25" y="0">s</tspan><tspan class="cls-16" x="87.06" y="0">P</tspan><tspan class="cls-17" x="93.51" y="0">r</tspan><tspan class="cls-18" x="97.83" y="0">i</tspan><tspan class="cls-16" x="100.65" y="0">c</tspan><tspan class="cls-21" x="105.94" y="0">e</tspan><tspan class="cls-44" x="112.07" y="0">T</tspan><tspan class="cls-18" x="118.19" y="0">i</tspan><tspan class="cls-31" x="121.02" y="0">m</tspan><tspan class="cls-21" x="130.95" y="0">e</tspan><tspan x="137.08" y="0">C</tspan><tspan class="cls-41" x="143.7" y="0">o</tspan><tspan class="cls-17" x="150.3" y="0">rr</tspan><tspan class="cls-21" x="158.94" y="0">e</tspan><tspan class="cls-18" x="165.06" y="0">l</tspan><tspan class="cls-32" x="167.89" y="0">a</tspan><tspan class="cls-39" x="173.84" y="0">ti</tspan><tspan class="cls-27" x="180.88" y="0">o</tspan><tspan x="187.34" y="0">n</tspan></text></g></g><g class="cls-5"><g class="cls-13"><text class="cls-35" transform="translate(92.22 104.99) scale(1.02 1)">(<tspan class="cls-36" x="3.8" y="0">x</tspan><tspan class="cls-32" x="9.1" y="0" xml:space="preserve"> 0.3)</tspan></text></g></g><g class="cls-5"><polygon class="cls-45" points="489.63 16.76 496.55 16.76 496.55 23.72 489.63 23.72 489.63 16.76 489.63 16.76"/></g><g class="cls-5"><g class="cls-13"><text class="cls-15" transform="translate(499.55 23.72) scale(1.02 1)"><tspan class="cls-46">I</tspan><tspan class="cls-24" x="3.14" y="0">n</tspan><tspan class="cls-19" x="9.6" y="0">t</tspan><tspan class="cls-20" x="13.75" y="0">e</tspan><tspan class="cls-22" x="20.04" y="0">l</tspan><tspan x="22.86" y="0"> </tspan><tspan class="cls-18" x="25.67" y="0">i</tspan><tspan x="28.49" y="0">5-4200H</tspan></text></g></g><g class="cls-5"><polygon class="cls-47" points="588.09 16.76 595 16.76 595 23.72 588.09 23.72 588.09 16.76 588.09 16.76"/></g><g class="cls-5"><g class="cls-13"><text class="cls-15" transform="translate(597.95 23.72) scale(1.02 1)"><tspan class="cls-40">S</tspan><tspan class="cls-33" x="5.63" y="0">G</tspan><tspan x="13.57" y="0" xml:space="preserve"> 2042</tspan></text></g></g><g class="cls-5"><polygon class="cls-48" points="655.87 16.76 662.95 16.76 662.95 23.72 655.87 23.72 655.87 16.76 655.87 16.76"/></g><g class="cls-5"><g class="cls-13"><text class="cls-15" transform="translate(665.81 23.72) scale(1.02 1)"><tspan class="cls-44">L</tspan><tspan class="cls-49" x="5.29" y="0">i</tspan><tspan class="cls-50" x="8.12" y="0">c</tspan><tspan class="cls-26" x="13.26" y="0">h</tspan><tspan class="cls-21" x="19.87" y="0">e</tspan><tspan class="cls-51" x="25.99" y="0">e</tspan><tspan x="32.28" y="0"> </tspan><tspan class="cls-52" x="35.09" y="0">P</tspan><tspan class="cls-18" x="41.39" y="0">i</tspan><tspan x="44.22" y="0" xml:space="preserve"> 4A</tspan></text></g></g><g class="cls-5"><polygon class="cls-53" points="743.2 16.76 750.11 16.76 750.11 23.72 743.2 23.72 743.2 16.76 743.2 16.76"/></g><g class="cls-5"><g class="cls-13"><text class="cls-15" transform="translate(753.08 23.72) scale(1.02 1)"><tspan class="cls-17">U</tspan><tspan class="cls-26" x="7.95" y="0">n</tspan><tspan class="cls-54" x="14.56" y="0">m</tspan><tspan x="24.33" y="0">a</tspan><tspan class="cls-55" x="30.28" y="0">t</tspan><tspan class="cls-52" x="34.57" y="0">c</tspan><tspan class="cls-56" x="39.71" y="0">h</tspan><tspan class="cls-57" x="46.32" y="0">e</tspan><tspan class="cls-58" x="52.45" y="0">d</tspan></text></g></g><g class="cls-59"><polygon class="cls-7" points="0.38 0.38 1297.36 0.38 1297.36 735.38 0.38 735.38 0.38 0.38 0.38 0.38"/></g></svg>